<svg id="Layer_1" data-name="Layer 1" xmlns="http://www.w3.org/2000/svg" viewBox="0 0 1230.38 1079.51"><defs><style>.cls-1{fill:none;}.cls-2{fill:#00649b;}.cls-3{fill:#001f38;}.cls-4{fill:#0db3fc;}.cls-5{fill:#00416d;}</style></defs><path class="cls-1" d="M1004.23,477.51q-6.09.11-12.18.17-17.87.17-35.74.28c-4.84,0-9.69-.1-14.53,0-7.26.15-12.71,3.47-16.39,9.74s-7.42,12.5-11,18.8c-4.28,7.44-8.49,14.91-12.69,22.39-1.49,2.63-2.84,5.34-4.27,8a11.66,11.66,0,0,0-.89,9c1.6,2.66,3.19,5.34,4.78,8q9.12,15.38,18.19,30.77c2.46,4.17,4.78,8.43,7.3,12.56,3.78,6.21,9.39,9.25,16.65,9.29s14.54.14,21.81.11c8.58,0,17.15-.14,25.73-.26,3,0,6-.23,9.07-.33,4.85-.16,8.13-2.95,10.58-6.7,3.76-5.76,7.32-11.64,10.8-17.57,6.9-11.78,13.7-23.62,20.51-35.45,1.31-2.27,1.89-4.69.93-6.87-1.5-5.67-4.68-10.07-7.28-14.73-2.85-5.11-6-10-9-15.07-3.91-6.6-7.75-13.25-11.65-19.86-1.12-1.91-2.43-3.71-3.48-5.65A14.18,14.18,0,0,0,1004.23,477.51Z" transform="translate(-351.87 -0.49)"/><rect class="cls-2" x="1020.43" y="467.36" width="53.59" height="52.92" rx="7.43" transform="translate(-456.33 612.33) rotate(-31.15)"/><rect class="cls-2" x="704.1" y="692.15" width="53.59" height="52.92" rx="7.43" transform="translate(-618.19 481.13) rotate(-31.15)"/><rect class="cls-3" x="746" y="761.48" width="53.59" height="52.92" rx="7.43" transform="translate(-648.01 512.79) rotate(-31.15)"/><rect class="cls-4" x="551" y="393.32" width="53.59" height="52.92" rx="7.43" transform="translate(-73.13 -229.27) rotate(29.25)"/><rect class="cls-5" x="511.42" y="464" width="53.59" height="52.92" rx="7.43" transform="translate(-43.64 -200.93) rotate(29.25)"/><rect class="cls-3" x="1249.05" y="781.23" width="53.59" height="52.92" rx="7.43" transform="translate(205.37 -520.87) rotate(29.25)"/><rect class="cls-4" x="1209.48" y="851.91" width="53.59" height="52.92" rx="7.43" transform="translate(234.85 -492.52) rotate(29.25)"/><rect class="cls-4" x="1194.54" y="367.15" width="53.59" height="52.92" rx="7.43" transform="translate(-379.4 687.94) rotate(-31.15)"/><rect class="cls-5" x="1236.44" y="436.48" width="53.59" height="52.92" rx="7.43" transform="matrix(0.86, -0.52, 0.52, 0.86, -409.22, 719.61)"/><rect class="cls-5" x="904.59" y="708.93" width="55" height="52.92" rx="7.43" transform="translate(-134.8 1682.71) rotate(-91.24)"/><rect class="cls-4" x="985.58" y="707.18" width="55" height="52.92" rx="7.43" transform="translate(-50.31 1761.88) rotate(-91.24)"/><rect class="cls-2" x="792.58" y="382.73" width="53.59" height="52.92" rx="7.43" transform="translate(-47.51 -348.65) rotate(29.25)"/><rect class="cls-3" x="753.01" y="453.4" width="53.59" height="52.92" rx="7.43" transform="translate(-18.03 -320.3) rotate(29.25)"/><rect x="1215.49" y="414.68" width="53.59" height="27.17" rx="7.99" transform="translate(-394.31 703.78) rotate(-31.15)"/><rect x="1242.48" y="816.23" width="27.17" height="53.59" rx="7.99" transform="translate(-445.04 1526.61) rotate(-60.75)"/><rect x="725.05" y="739.69" width="53.59" height="27.17" rx="7.99" transform="translate(-633.1 496.96) rotate(-31.15)"/><rect x="959" y="707.01" width="27.17" height="55" rx="7.99" transform="translate(-367.56 20.76) rotate(-1.24)"/><path d="M906.7,522.21q8.52-15.72,17-31.45,2.88-5.37,5.73-10.75a14.12,14.12,0,0,1,9.27-3.08c2.21,0,4.42-.26,6.64-.33,7.67-.23,15.34-.39,23-.63,5.86-.19,11.71-.62,17.56-.65,5.33,0,10.72-.69,16.41.73,2.14.18,3,1.13,4.81,2.92a7.53,7.53,0,0,0,.56.57l.05.06h0a8,8,0,0,0,9.49.91l32.18-19.45a8,8,0,0,0,2.71-11l-.49-.81c-.89-1.52-1.44-3.23-2.34-4.74-.23-.37-.48-.73-.73-1.07l-3.82-6.35c-3.34-5.52-6.35-11.32-12-15-.57-.37-1.15-1-1.73-1-3.09-.08-6.19,0-9.28.05q-10.14.18-20.29.39c-6.56.14-13.12.36-19.69.47-13.73.23-27.47.41-41.2.62q-13.34.21-26.66.46a33.9,33.9,0,0,0-13.29,2.75,21.39,21.39,0,0,0-11.19,11.45,236.34,236.34,0,0,1-13,25.66c-3.14,5.53-6.51,10.93-9.78,16.38-.32.52-.65,1-.93,1.57-4.57,8.65-9.09,17.33-13.72,25.95-2.67,5-5.55,9.85-8.27,14.82a11.6,11.6,0,0,0-1.35,3.84q-2.62,4.5-5.2,9c-3.79,6.69-3.79,13.55.17,20.19,3.15,5.28,6.58,10.4,9.83,15.63q6.65,10.67,13.19,21.38c5.52,9,11,18.14,16.45,27.21.57,1,1.06,2,1.67,2.89,6.06,9.2,11.53,18.73,16.69,28.45q1.79,3.35,3.77,6.55a12.12,12.12,0,0,0,10.63,6c4.34.09,8.69,0,13-.09,8.59-.21,17.17-.53,25.76-.73,7.08-.18,14.16-.26,21.23-.37,17.29-.27,34.58-.5,51.87-.8,6.45-.11,13,.2,19-2.86.61-.31,1.46-.47,1.77-1,1.62-2.64,3.11-5.35,4.61-8q4.93-8.87,9.85-17.75c3.17-5.75,6.28-11.53,9.48-17.26,6.69-12,13.44-24,20.15-35.94q6.53-11.64,13-23.29a35.24,35.24,0,0,0,4-10.65,12,12,0,0,0-.47-10.85,21.82,21.82,0,0,0-3.48-6.8c-.81-1.07-1.61-2.15-2.39-3.24-.3-.5-.6-1-.91-1.5-2.29-3.73-5.49-8.09-7.8-11.81a7.94,7.94,0,0,0-11-2.65l-32.51,20.05a8.29,8.29,0,0,0-2.82,11.18c-.14,1.34.92,1.54-1.85,7.22-1.32,2.72-2.66,5.44-4.08,8.11-4,7.57-8.07,15.14-12.18,22.67-3.48,6.38-7.08,12.7-10.61,19.06s-8.9,9.79-16.16,10.11c-4.83.21-9.68.2-14.53.34q-17.85.52-35.72,1.11l-9.33.32a11.66,11.66,0,0,1-7.46-5.12c-1.65-2.54-3.37-5-5-7.6-4.53-7.29-9.05-14.58-13.5-21.91-3.77-6.22-7.42-12.5-11.15-18.75s-4-12.61-.63-19C902,530.65,904.39,526.47,906.7,522.21Z" transform="translate(-351.87 -0.49)"/><rect x="544.42" y="428.32" width="27.17" height="53.59" rx="7.99" transform="translate(-463.59 719.15) rotate(-60.75)"/><path d="M582,815.54c3.94-2.66,7.8-5.44,11.69-8.17,2.89-2,5.73-4.14,8.67-6.11,3.44-2.31,6.86-4.67,10.46-6.71,4.39-2.47,7.55-1.62,10.4,2.59q4,5.9,7.73,12,7.68,12.36,15.24,24.8,10.29,17,20.46,34.06c5,8.43,9.84,17,14.84,25.4,6,10.17,12.17,20.28,18.22,30.45,4.24,7.12,8.37,14.31,12.63,21.43,2.81,4.68,5.59,9.38,8.7,13.86a35,35,0,0,0,6.16,6.59c4.65,3.91,10.35,4.85,16.22,4.85,3.73,0,7.46-.3,11.19-.39,5.16-.12,10.32-.15,15.48-.26,9.7-.2,19.4-.44,29.1-.64q15.15-.32,30.31-.6l29.11-.57c10.21-.18,20.42-.32,30.63-.5,9.61-.17,19.21-.38,28.81-.55q15.62-.27,31.24-.5c9.5-.16,19-.35,28.5-.5,11.22-.18,22.44-.32,33.66-.5,8.59-.15,17.18-.36,25.77-.51q15.32-.27,30.63-.49c9.81-.16,19.61-.33,29.41-.46,12.54-.18,25.08-.29,37.62-.5,7.17-.12,14.35-.41,21.52-.55q16.23-.3,32.46-.48c7.38-.07,14.77.15,22.15-.11,5.38-.19,10.06-2.19,13-7.14,2.64-4.54,5.3-9.07,7.86-13.65,3.1-5.58,6.86-12.56,9.94-18.15l.88-1.58a8,8,0,0,0-3.07-10.88l-32.81-18.38a8,8,0,0,0-10.88,3.07l-1.43,2.55c-.5.85-.8,1.34-1.71,2.85-4.78,7.92-11.33,8.83-19,8.85-2,0-114.17,2-124.28,2.14-7.79.1-15.58.08-23.37.15-1.61,0-3.22.33-4.82.29a69.28,69.28,0,0,1-8.16-.49,6.21,6.21,0,0,1-5.72-5.42,45.48,45.48,0,0,1-.79-5.67c-.29-7.18-.49-14.36-.69-21.54-.11-3.53-.4-7.08-.17-10.6.29-4.69,2.67-6.84,7.38-7.18,3.33-.24,6.66-.46,10-.53,10.21-.2,20.42-.31,30.63-.47,9.6-.15,19.2-.34,28.8-.47q20.18-.26,40.35-.43c5.16,0,10.32,0,15.48-.12,3.74-.08,7.47-.28,11.2-.52a14.05,14.05,0,0,0,11.72-7c1.1-1.81,2-3.72,3-5.58q8.63-15.68,17.25-31.33c3.51-6.37,7.07-12.71,10.59-19.07,5.58-10.08,11.09-20.19,16.72-30.24s11.38-20,17-30.05c4.95-8.81,9.83-17.66,14.76-26.48,1.92-3.44,3.91-6.83,5.8-10.28q7.5-13.69,14.94-27.4c2.95-5.41,5.84-10.85,8.83-16.24,3.09-5.56,6.3-11.07,9.42-16.62,1.83-3.25,3.6-6.54,5.4-9.82,4.17-7.62,8.28-15.27,12.52-22.85,3.11-5.56,6.41-11,9.57-16.52,2-3.51,3.87-7.1,5.86-10.62,5.3-9.4,10.67-18.77,15.94-28.2,1.73-3.08,3.35-6.23,4.82-9.43a16.1,16.1,0,0,0,1-4.38,18.56,18.56,0,0,0-2.43-12c-2.08-3.69-4.47-7.21-6.64-10.85-4.68-7.86-11.32-18.42-16.82-27.42l-4.69-7.76a8,8,0,0,0-11-2.7l-32.19,19.44a8,8,0,0,0-2.7,11l5.78,9.57a4,4,0,0,0,.23.34c1.21,2,2.41,4,3.63,6,1.06,1.73,2.23,3.38,3.32,5.08,3.53,5.51,2.68,11.06-.23,16.4-3.64,6.64-7.57,13.13-11.33,19.7s-7.54,13.14-11.21,19.76c-4.9,8.84-9.67,17.75-14.57,26.59-2.16,3.89-4.43,7.71-6.74,11.51-2.93,4.83-5.9,9.64-9,14.4a5.84,5.84,0,0,1-6.53,2.79,17.88,17.88,0,0,1-4-1.35c-6.28-3-12.55-6.05-18.77-9.21a59.08,59.08,0,0,1-7.54-4.5c-3.33-2.4-4.2-5.52-2.77-9.35a35,35,0,0,1,2.68-5.42c3.2-5.49,6.53-10.92,9.73-16.42,1.87-3.23,3.6-6.55,5.39-9.83q7.44-13.54,14.88-27.07c2-3.72,4.13-7.42,6.15-11.15a11,11,0,0,0,1-2.52c1.68-6.72.08-12.81-3.65-18.47-2.45-3.71-4.92-7.41-7.26-11.19q-6.47-10.46-12.77-21c-6.07-10.15-12-20.35-18.12-30.5-5.81-9.72-11.68-19.4-17.52-29.1q-9.46-15.72-18.92-31.45-8.67-14.43-17.29-28.88c-8.7-14.59-17.36-29.2-26.11-43.76-3.32-5.52-7.76-9.67-14.6-10.07-3.91-.22-7.85-.13-11.77-.07-9.91.15-19.81.38-29.72.56q-15.16.27-30.32.5-14.57.26-29.11.51l-30.63.55q-14.4.25-28.8.5-23.21.38-46.41.7c-8.3.11-16.59.1-24.88.25a47,47,0,0,0-7.86.66,15.53,15.53,0,0,0-11.6,8.36c-2,3.86-4,7.71-6.11,11.51-2.94,5.32-6.76,13.84-10.09,20.53l-2,3.48a8.15,8.15,0,0,0-.64,1.5h0a8,8,0,0,0,3.72,9.37l32.81,18.38a8,8,0,0,0,10.88-3.07l5.47-9.76a8,8,0,0,0,.84-2.26,13.17,13.17,0,0,1,7.06-3.79,46,46,0,0,1,7.51-.67c9-.22,18-.34,27-.49l30.93-.5c9.7-.15,19.41-.28,29.11-.44,15.06-.23,30.13-.5,45.19-.72,8.6-.13,17.19-.21,25.79-.31.6,0,1.2-.13,1.81-.13,4.75,0,9.51-.13,14.24.14a10.58,10.58,0,0,1,8.28,4.45c1.58,2.22,3.15,4.46,4.57,6.79q9.81,16,19.53,32.14,8.55,14.14,17,28.33c8.5,14.23,16.94,28.51,25.44,42.74,4.72,7.89,9.57,15.71,14.29,23.61,4.2,7,8.29,14.13,12.42,21.2,2,3.32,1.79,6.78.4,10.21a45.6,45.6,0,0,1-2.66,5.44c-4.36,7.64-8.8,15.23-13.17,22.86q-4.57,8-9,16.12-9.16,16.58-18.27,33.19c-3.1,5.67-6.07,11.41-9.16,17.09-5.89,10.82-11.78,21.64-17.77,32.42-2.79,5-5.81,9.94-8.71,14.92-1.84,3.14-3.69,6.27-5.46,9.44-1.27,2.29-2.34,4.7-3.64,7a8.17,8.17,0,0,1-7.17,4.37l-1.57.07a7.51,7.51,0,0,0-1.51-.12l-11.18.24a8,8,0,0,0-7.82,8.17l.84,39a8,8,0,0,0,8.17,7.82l7-.15v0l18-.27c4.85-.07,9.71-.08,14.56-.26,6.62-.25,11.47-3.5,14.66-9.22,2.12-3.79,4.07-7.67,6.17-11.47,3-5.4,6-10.77,9-16.16,2.07-3.7,4.11-7.43,6.17-11.13,3-5.39,6-10.76,9-16.15,2.79-5,5.45-10.12,8.34-15.09a85.74,85.74,0,0,1,5.39-8,5.75,5.75,0,0,1,5.71-2.14,15.64,15.64,0,0,1,5.17,1.48q13,7.16,25.86,14.6c3.83,2.21,4.73,5.58,2.76,9.59-1.29,2.62-2.64,5.23-4.08,7.78q-11.46,20.33-23,40.62-4.56,8.05-9.14,16.09c-1.94,3.42-3.89,6.84-5.81,10.28q-7.68,13.74-15.34,27.52a10.2,10.2,0,0,1-7.3,5.41,66.18,66.18,0,0,1-9.92,1.1c-10.2.28-20.42.37-30.63.54l-28.8.51-30.63.5-29.41.5-30,.5-29.72.51-29.72.5-30,.43c-9.9.16-19.81.36-29.71.49-6,.08-11.94,0-17.91.09-3.36.06-8.14-2-10.44-3.73l-1-1.69a8,8,0,0,0-11-2.7L770.62,820.7a8,8,0,0,0-2.7,11l4.13,6.84h0c.08.14,6.36,11.82,6.45,12,1.3,2.17,2.4,4.48,3.89,6.51a19,19,0,0,0,15.83,8.1c5.36,0,10.71-.14,16.07-.24q17.28-.32,34.57-.65c8.19-.17,16.37-.4,24.55-.55q15.63-.3,31.24-.48c8.4-.09,16.8-.08,25.2-.12.6,0,1.21-.08,1.81-.14a47.75,47.75,0,0,1,13.29.45,6.92,6.92,0,0,1,5.75,5.17,32,32,0,0,1,1.31,7.12c.5,9.18.57,18.39,1.3,27.55.52,6.49-3.94,10.32-9.42,10.5-4.54.16-9.08.4-13.63.49-10,.21-20,.35-30,.52-4.75.07-9.5.12-14.26.2-10.21.16-20.42.35-30.63.49-8.49.12-17,.19-25.48.28H829c-11.72.29-23.44.62-35.16.84-7.89.15-15.78.14-23.67.21a15.75,15.75,0,0,0-1.81.14,13.06,13.06,0,0,1-13.41-6.41q-9.61-15.29-19-30.7c-6.09-10-12-20.14-18.06-30.19Q709,834.72,700,819.93q-9.21-15.33-18.41-30.68c-5.87-9.79-11.7-19.61-17.6-29.39-6.21-10.3-12.54-20.53-18.73-30.84-5.92-9.88-11.69-19.85-17.59-29.75s-11.93-19.95-17.94-29.9c-6.18-10.2-12.43-20.36-18.62-30.56s-12.25-20.23-18.31-30.38c-3.11-5.21-6-10.54-9.14-15.75-4.75-8-9.61-15.92-14.39-23.9-3.06-5.12-6-10.32-9.08-15.42-1.62-2.67-2.56-5.75-2-8.34a8.45,8.45,0,0,0,.87-1.25l5.47-9.76a8,8,0,0,0-3.07-10.88l-32.81-18.38a8,8,0,0,0-10.89,3.07l-1.26,2.27h0c-3.15,5.51-13.58,23-16.73,28.48a19.93,19.93,0,0,0,1.5,22.23,30,30,0,0,1,1.77,2.46c6.28,10.14,12.59,20.25,18.78,30.43q9.14,15,18.07,30.18c7.28,12.37,14.41,24.83,21.69,37.21,4.25,7.23,8.66,14.37,13,21.56,5.1,8.5,10.14,17,15.29,25.5,3.35,5.53,6.81,11,10.27,16.46,2.16,3.42,4.59,6.68,6.6,10.18,3.65,6.33,3.08,9.15-1.92,12.81-10.2,7.47-20.56,14.7-30.91,21.95a7.76,7.76,0,0,1-10-.78,15.82,15.82,0,0,1-2.65-3.28q-4.43-7.25-8.72-14.57c-6-10.3-12-20.64-18-30.92q-8.22-14-16.56-27.9c-6.23-10.42-12.52-20.79-18.72-31.21-5.58-9.39-11.07-18.82-16.6-28.24-5.93-10.11-11.82-20.24-17.81-30.32-5.89-9.9-11.92-19.71-17.81-29.61Q420.83,562.42,414.9,552a10.23,10.23,0,0,1-.41-10.41c1.95-3.65,4-7.22,6.08-10.81.7-1.23,1.54-2.39,2.23-3.62,4.33-7.77,8.61-15.55,13-23.31,3-5.28,6-10.52,9-15.79,2-3.41,4-6.81,5.86-10.25,4.21-7.6,8.32-15.25,12.54-22.84,3.69-6.62,7.48-13.18,11.21-19.78Q483,420,491.49,404.82c3-5.37,6-10.77,9-16.14,2.08-3.69,4.22-7.35,6.32-11l20.08-35.3q3.9-6.86,7.78-13.71c1.9-3.34,3.81-6.67,5.65-10,6.34-11.61,12.58-23.28,19-34.85,5-9.1,10.31-18.08,15.46-27.12q8.63-15.13,17.24-30.29c3.75-6.58,7.51-13.16,11.18-19.78,5.48-9.9,10.86-19.86,16.34-29.76,3.76-6.8,7.61-13.57,11.44-20.34,3.68-6.5,7.35-13,11.09-19.48,6.2-10.76,12.48-21.49,18.67-32.25,2.72-4.73,5.36-9.51,8-14.3,1.93-3.55,3.94-7.07,5.59-10.75a44.11,44.11,0,0,1,6.2-9.63c3.94-4.86,9-7,15.11-7.06,12.43-.16,24.86-.24,37.29-.39,9.8-.12,19.61-.3,29.42-.42,5-.07,10.11-.07,15.17-.13,9.8-.12,19.6-.27,29.4-.4q15.32-.21,30.62-.38c4.75-.06,9.51-.05,14.26-.12,9.8-.13,19.61-.33,29.41-.45,13.14-.15,26.29-.24,39.43-.36,4.76,0,9.51-.08,14.27-.16a14.47,14.47,0,0,0,3-.36c3.54-.81,5.4-2.88,5.76-6.48a25.9,25.9,0,0,0,.09-3.94c-.47-11.42-.92-22.84-1.49-34.25A14.2,14.2,0,0,0,928.74,2.07c-5.25-.07-10.51.19-15.76.24-7.28.06-14.56,0-21.85.07-2.32,0-4.65.06-7,.1a15.69,15.69,0,0,1-7.37-1.36,9.45,9.45,0,0,0-4.12-.63c-6.16.1-12.32.35-18.48.48-9.6.2-19.2.35-28.8.51L794.76,2l-29.1.5L735,3l-29.11.5c-10.11.17-20.22.36-30.32.5-6.28.09-12.55.21-18.82.09a3.82,3.82,0,0,0-4,2.46c-3.11,6.12-6.22,12.25-9.52,18.27-5.6,10.18-11.33,20.28-17,30.42l-10.8,19.31Q604.16,94.78,592.83,115c-3,5.38-6.1,10.72-9.16,16.07-2,3.42-4,6.81-5.89,10.25-6.49,11.65-12.91,23.34-19.41,35-3.25,5.82-6.63,11.56-9.91,17.36Q539.9,208.84,531.37,224c-3.66,6.52-7.36,13-11,19.53-5.57,10-11.08,20-16.64,29.93s-11.26,20.09-16.92,30.11q-7.47,13.2-15,26.33c-2,3.5-4.15,6.93-6.11,10.46-6.31,11.4-12.56,22.83-18.85,34.24q-5,9-10,18-9.51,16.9-19.05,33.8-4.45,7.92-8.89,15.85-9,16-17.94,32c-2.93,5.2-5.95,10.34-8.93,15.51-1.92,3.33-3.89,6.63-5.76,10C371.18,508.83,366.18,518,361.1,527c-1.88,3.35-4.08,6.52-5.84,9.92a38.24,38.24,0,0,0-2.92,7.6,14.25,14.25,0,0,0,1.88,11.34q10.15,16.89,20.26,33.82c5.22,8.78,10.32,17.63,15.53,26.41,5.94,10,12,19.9,17.93,29.91,8,13.49,15.86,27,23.81,40.54q4.85,8.23,9.77,16.42c6.68,11.09,13.44,22.12,20.06,33.23,5.53,9.29,10.89,18.69,16.37,28,6.06,10.28,12.18,20.52,18.26,30.78,5.72,9.65,11.38,19.34,17.15,29,6.07,10.14,12.27,20.21,18.35,30.36q8.88,14.82,17.62,29.73c5.9,10,11.7,20.09,17.64,30.08s12.2,20,18.2,30.1c6.11,10.24,12.12,20.55,18.12,30.86,5.14,8.82,10.16,17.71,15.34,26.51,5.85,9.93,11.82,19.78,17.73,29.67,7.9,13.19,15.85,26.34,23.65,39.58a13.16,13.16,0,0,0,12.19,7c5.35,0,10.71.06,16.07.1l.91,0q18-.23,36.05-.44c2.53,0,5.07.1,7.59.07,11.12-.16,22.23-.4,33.35-.53,9.91-.13,19.82-.14,29.73-.22s19.61-.18,29.41-.29c10-.1,20-.25,30-.33,11.12-.09,22.25-.12,33.38-.18l21.82-.15c.41,0,.81,0,1.22,0l26.09-.05c1.71,0,3.42,0,5.13,0,7.43-.34,9.33-5.42,9.57-10.33s.09-9.9.1-14.86c-.21,0-.9-15.76-1.13-20.6s-2.58-8.41-8.68-8.25c-10.2.28-20.42.35-30.63.47-6,.07-11.94,0-17.91.1q-11.67.1-23.34.24h-.61c-6.26.18-12.52.39-18.78.52-4.45.09-8.9.07-13.34.13l-31.22.46c-9.61.13-19.21.27-28.82.37-6.27.07-12.54,0-18.82.12-11.11.11-22.23.27-33.35.38-6.07,0-12.14,0-18.21,0a13.78,13.78,0,0,0-1.82.08c-5.93.78-10.53-1.48-13.69-6.42-6.43-10-12.84-20.11-19-30.3-6-9.92-11.82-20-17.7-30-5.61-9.59-11.13-19.24-16.82-28.79-6.15-10.34-12.47-20.57-18.67-30.88-3.33-5.54-6.57-11.15-9.87-16.72-4.33-7.3-8.7-14.58-13-21.89-6-10.28-12-20.6-18.12-30.86C576.67,824.79,576.42,819.3,582,815.54Z" transform="translate(-351.87 -0.49)"/><path d="M1581.13,527.56a50.32,50.32,0,0,0-3.53-6.69c-5.36-8.92-10.8-17.8-16.17-26.72q-8.84-14.68-17.61-29.4-9-15.11-18-30.24c-5.66-9.57-11.26-19.17-16.92-28.73q-9-15.27-18.12-30.48c-5.91-9.9-11.9-19.74-17.76-29.65-6.12-10.36-12.11-20.79-18.18-31.18q-8-13.61-16-27.18c-6-10.08-12.07-20.11-18.1-30.16S1408.66,237,1402.65,227q-8.85-14.85-17.59-29.76c-5.69-9.68-11.29-19.4-17-29.05-5.81-9.83-11.74-19.6-17.58-29.42q-9.08-15.24-18.06-30.53-8.48-14.37-16.92-28.75Q1302.77,57.92,1290,36.4c-4.81-8.08-9.72-16.09-14.6-24.12-.84-1.38-1.77-2.7-2.68-4-2.45-3.58-6.14-4.91-10.19-5.12-5.33-.27-10.69-.25-16-.21-13.34.11-26.68.31-40,.46-5.26.06-10.52.06-15.78.11-9.9.1-19.81.23-29.72.33l-29.12.27-29.41.3L1070,4.7l-12.13.13L1023,5.15c-5,0-9.91.06-14.86.13a16.79,16.79,0,0,0-3,.31c-5.37,1.07-8.06,4.31-8,9.78.12,6.67.37,13.34.57,20,.15,4.95.23,9.91.48,14.86.29,5.56,2.35,7.92,7.85,8.57a70,70,0,0,0,9,0c15.37-.19,30.74-.42,46.11-.59,8-.09,16-.1,24-.15.51,0,1,0,1.52,0l21.22-.29a8.21,8.21,0,0,1,1.21.09c4.22.62,6.47,3,6.76,7.25.22,3.12.45,6.24.51,9.37.16,8.08.22,16.17.33,24.25,0,1.21.08,2.42.17,3.63.4,5.69-2.33,9.06-8,9.79a18.73,18.73,0,0,1-2.12.16c-8,.18-16,.38-23.95.53-9.9.19-19.81.34-29.71.51l-29.72.5-30,.5c-9.91.15-19.81.26-29.72.41s-20,.33-30,.5l-29.41.5q-15.16.25-30.32.51l-29.11.5q-15.63.25-31.24.5l-28.51.5c-10.41.17-20.82.37-31.23.49-8.2.1-16.39.1-24.59.15-2,0-4,.08-6.06.14-6.34.16-11.14,2.52-14.25,8.49-5.52,10.56-11.44,20.91-17.26,31.32-5,8.9-10.1,17.73-15.09,26.62q-8.4,14.92-16.67,29.91c-3.72,6.72-7.36,13.47-11.06,20.19-4.88,8.86-9.74,17.72-14.67,26.54-3.79,6.79-7.7,13.51-11.54,20.28q-3.15,5.54-6.24,11.09c-4.14,7.41-8.24,14.84-12.38,22.23-3.22,5.73-6.57,11.38-9.7,17.15-2.92,5.36-11,21.59-16.78,33.11a6.56,6.56,0,0,0-.65,1l-5.47,9.76a8,8,0,0,0,3.07,10.88l32.81,18.37a8,8,0,0,0,10.88-3.07l.19-.33a8,8,0,0,0,1.81-2.28l.77-1.48c3-2.6,6.42-2.93,10.77-1.12,2.41,1,4.71,2.32,7,3.55s4.41,2.48,6.64,3.67c5.34,2.86,10.77,5.57,16,8.58,4.5,2.57,5.36,5.33,3.66,10.22a16.67,16.67,0,0,1-1.21,2.43q-2.45,4.37-4.93,8.7-9,15.66-17.9,31.31c-3.44,6.06-6.81,12.16-10.2,18.24-5.86,10.5-11.68,21-17.58,31.49-3,5.28-6.15,10.45-9.12,15.74a52.6,52.6,0,0,0-3.7,7.63,21.6,21.6,0,0,0,2.34,20.52c2.54,3.78,5.2,7.48,7.6,11.34,5.44,8.76,10.77,17.59,16.11,26.41q9.27,15.3,18.48,30.65,9.07,15.06,18.13,30.15,8.65,14.43,17.29,28.89c1.16,1.95,2.3,3.91,3.46,5.87l.23.43,5.79,9.57a8,8,0,0,0,11,2.71l32.19-19.45a8,8,0,0,0,2.7-11l-.6-1c.25-1.3,2.84-2.8,4.63-4.12,3.26-2.39,6.44-4.9,9.79-7.16,5.95-4,11.93-8,18-11.76,3.27-2,6.75-1.11,9.16,1.91A19.11,19.11,0,0,1,778.3,655c1.68,2.89,3.29,5.81,5,8.69,5.12,8.71,10.19,17.46,15.43,26.11,7,11.58,14.23,23.06,21.27,34.63,5.3,8.72,10.46,17.53,15.7,26.29a57,57,0,0,0,3.09,4.86,19.2,19.2,0,0,0,16.44,8.1c7.31-.09,19.46,0,29.66,0a7.67,7.67,0,0,0,1.74.15l9.65-.21h0l1.53,0a8,8,0,0,0,7.82-8.16l-.85-39a8,8,0,0,0-8.16-7.82c-2.72,0-12.77-.32-15.47-.53-3.89-.31-7.62-1.42-10.22-4.59a63.08,63.08,0,0,1-5.48-7.62c-6-10-11.92-20.19-17.95-30.24s-12.07-19.87-18.08-29.81Q818.17,617.31,807,598.73c-4.71-7.78-9.48-15.52-14.16-23.32-4.58-7.62-9.18-15.25-13.57-23a20.76,20.76,0,0,1-2.72-7.31c-.46-3.36,1.42-7,3.75-11.33v0a5.87,5.87,0,0,0,.37-.59l5.47-9.76a8,8,0,0,0-3.07-10.88l-32.81-18.37a8,8,0,0,0-10.88,3.07l-.29.51c-3.12,5.52-12.77,20.67-15.44,25.56s-5.23,9.59-7.54,14.53c-2.1,4.48-2.58,9.12.19,13.64q2.93,4.77,5.79,9.58c3.27,5.47,6.44,11,9.78,16.42,2.7,4.39,5.61,8.64,8.35,13a25.35,25.35,0,0,1,2.34,4.58c1.21,3.21.58,5.38-2.21,7.44-3.66,2.7-7.37,5.35-11.17,7.86q-8.85,5.86-17.86,11.49c-2.9,1.81-5.24,1.23-7.29-1.57-1.61-2.2-3.2-4.42-4.62-6.74-9.06-14.85-18-29.73-27.09-44.59-2.94-4.84-5.86-9.69-8.92-14.46-2.91-4.56-3.91-9.28-1.72-14.38a50.84,50.84,0,0,1,2.61-5.09c3-5.18,6-10.28,8.91-15.51,4.18-7.61,8.17-15.33,12.33-22.95,3.52-6.47,7.19-12.88,10.76-19.32q8.46-15.24,16.9-30.49c3.63-6.53,7.32-13,11-19.55s7.29-13.28,11-19.9c3.82-6.89,7.71-13.74,11.52-20.63,3.52-6.36,7-12.77,10.48-19.12q8.83-15.89,17.75-31.73c2.92-5.2,5.89-10.37,8.83-15.56,1.94-3.43,3.82-6.9,5.78-10.32q7.74-13.55,15.53-27.05a18.39,18.39,0,0,1,1.92-2.73,5.55,5.55,0,0,1,1.81-1.54,22.92,22.92,0,0,1,9.57-2.56c9,0,18-.21,27-.36q15.16-.22,30.33-.5l29.71-.5,30-.5,29.41-.5,30.33-.51,29.11-.5c10.31-.17,20.62-.37,30.93-.49,8.2-.09,16.39-.06,24.59-.14,5.46-.06,10.91-.29,16.37-.33,4.94,0,9.9-.08,14.84.15a11,11,0,0,1,8.89,5.05c2.78,4.1,5.64,8.15,8.21,12.38,7.46,12.27,14.79,24.61,22.15,36.94,4.25,7.11,8.45,14.25,12.66,21.39q5.48,9.25,10.93,18.53a7.77,7.77,0,0,0,.81,1.85l5.79,9.58a8,8,0,0,0,11,2.71l32.19-19.45a8,8,0,0,0,2.7-11l-2.82-4.67h0l-2.87-4.74c-1.47-2.53-2.94-5.13-4.4-7.42a37.53,37.53,0,0,1-2.6-4.79,6.58,6.58,0,0,1,1.26-7.61,37.66,37.66,0,0,1,5.83-5.25q12.3-8.61,24.78-17c3.22-2.16,8-2.88,11.27,1.65.71,1,1.48,1.94,2.11,3,3.82,6.2,7.65,12.39,11.41,18.62q8.94,14.79,17.8,29.64l18.27,30.42q8.89,14.82,17.78,29.65,9,15.09,18.07,30.18,8.79,14.71,17.52,29.46,13.47,22.69,26.92,45.4c2.21,3.74,4.1,7.7,6.57,11.26a9.28,9.28,0,0,1,1,9.73c-2.68,5.77-5.67,11.4-8.71,17s-6.42,11.22-9.62,16.84c-1.9,3.34-3.75,6.7-5.6,10.06-4.19,7.6-8.33,15.24-12.56,22.82-3,5.38-6.14,10.69-9.19,16q-3,5.26-5.87,10.6c-4.09,7.55-8.12,15.13-12.24,22.67-3.58,6.56-7.23,13.08-10.86,19.61q-9.14,16.43-18.28,32.84-7.53,13.49-15.1,27c-2.53,4.48-12.88,24.5-16.08,30.46l-.47.85a2.1,2.1,0,0,0-.13.26l0,.05h0A8,8,0,0,0,1272.6,775l32.81,18.37a8,8,0,0,0,10.88-3.07l5.46-9.76a7.69,7.69,0,0,0,.66-1.54q2.22-3.82,4.49-7.63c2.48-4.14,4.69-5.1,10.37-3.28a11.71,11.71,0,0,1,1.63.8c5.51,2.77,11,5.56,16.51,8.31,4.51,2.26,9.07,4.41,13.56,6.72a17.29,17.29,0,0,1,4,2.73c3.24,3.07,3.72,6.84,1.59,10.73-1.36,2.48-2.69,5-4.09,7.44-4.85,8.51-9.76,17-14.61,25.51-2.65,4.66-5.24,9.35-7.85,14q-8.87,15.89-17.75,31.75c-4.76,8.45-9.62,16.85-14.42,25.28q-3.07,5.4-6.1,10.83c-4.09,7.31-8.13,14.65-12.26,21.95-3.28,5.8-6.67,11.54-10,17.34-6.4,11.24-12.75,22.49-19.14,33.73-2.8,4.92-5.64,9.81-8.45,14.72a15.13,15.13,0,0,0-.86,1.93c-3.35,8.4-8.61,14.6-18.18,15.84a27.7,27.7,0,0,1-3,.22q-6.82.1-13.65.16c-10,.11-20,.19-30,.31-9.8.11-19.6.28-29.41.39-11.73.13-23.46.21-35.18.33-2.93,0-5.85.14-8.78.18l-34,.44c-8.59.11-17.18.25-25.77.34-12.54.13-25.09.2-37.63.35-3.43,0-6.87.12-10.28.44-5.13.47-7.77,3.39-8,8.54a26.42,26.42,0,0,0,.14,3.33c.26,3.23.64,6.45.79,9.68.29,6.46.38,12.93.68,19.39.47,10.28,7.18,16.88,17.49,17.05,1.71,0,3.43-.22,5.14-.25,10-.17,20-.35,30-.43,8.39-.07,16.79,0,25.19,0a14.18,14.18,0,0,1,6.73,1.31,7.14,7.14,0,0,0,3.23.52c7.28-.13,14.55-.36,21.82-.5,10.31-.19,20.62-.33,30.93-.51l28.81-.5q16.38-.27,32.76-.5l12.13-.21q15.62-.26,31.24-.5c8.29-.11,16.58-.17,24.87-.26,2.84,0,2.85-.11,3.89-2.83a72.4,72.4,0,0,1,3.64-9c3.57-6.57,7.41-13,11.19-19.44,4.39-7.49,8.93-14.9,13.22-22.46,5-8.78,9.72-17.72,14.66-26.53,4.3-7.66,8.77-15.23,13.12-22.86,4.11-7.19,8.22-14.39,12.25-21.63,4.67-8.38,9.22-16.83,13.88-25.22,3.68-6.62,7.47-13.17,11.18-19.77q8.68-15.45,17.32-30.94,5.41-9.64,10.84-19.28,8.45-15.06,16.89-30.13c3.66-6.51,7.42-13,11.09-19.48,5.6-10,11.15-19.93,16.74-29.88,3.76-6.69,7.56-13.35,11.33-20q7.44-13.2,14.87-26.42c2.08-3.69,4.23-7.36,6.29-11.06,6-10.76,12-21.55,18-32.29,3.06-5.47,6.26-10.86,9.35-16.31,2.4-4.22,4.71-8.48,7.07-12.72q9.22-16.54,18.48-33.07c4.46-7.92,9-15.8,13.52-23.7,2.1-3.69,4.17-7.39,6.24-11.1,4.12-7.41,8.17-14.87,12.36-22.24,3.25-5.71,6.66-11.31,10-17,1.59-2.69,3.3-5.33,4.74-8.11C1581.91,538.51,1583.4,533.19,1581.13,527.56ZM1210.05,258c-6,4.16-12.17,8-18.33,11.88A24.88,24.88,0,0,1,1187,272c-3.1,1.15-5.6.06-7.48-2.42a68.33,68.33,0,0,1-4.19-6.31c-2.87-4.77-5.62-9.6-8.49-14.37-5-8.31-10.19-16.52-15.09-24.89-3.4-5.81-8.55-8.07-14.92-8.1-5.16,0-10.31.18-15.46.26l-34.88.49-13.35.21q-15.77.25-31.53.5c-8.8.16-17.59.36-26.38.51-11.12.18-22.25.32-33.37.5-9.5.15-19,.34-28.5.5l-30.94.5c-9.6.16-19.2.35-28.81.5q-15.6.25-31.22.46l-11.83.21-32.15.49c-8.89.14-17.79.23-26.68.45a64.28,64.28,0,0,0-7.82.76c-6.37.94-10.44,5-13.44,10.34-2.4,4.21-4.41,8.63-6.77,12.86-3,5.28-6.16,10.43-9.15,15.7q-8.69,15.28-17.23,30.65c-3.35,6-6.62,12-9.89,18.06-6.2,11.45-12.27,23-18.61,34.36-3.59,6.44-7.57,12.67-11.46,18.93-1.57,2.52-5.91,3.53-8.62,2.15q-12.69-6.48-25.34-13c-2.69-1.38-5.4-2.74-8-4.24-4.13-2.35-4.66-3.94-3.07-8.5a15,15,0,0,1,.95-2.22c2.93-5.19,5.93-10.34,8.82-15.56,2.51-4.5,4.87-9.07,7.36-13.58,1.9-3.45,3.89-6.84,5.84-10.26,2.59-4.57,5.19-9.14,7.75-13.72,4.89-8.73,9.74-17.47,14.63-26.19,1.93-3.44,4-6.8,5.9-10.23,4.95-8.81,9.85-17.64,14.77-26.46q8.48-15.23,17-30.44c2.36-4.23,4.83-8.4,7.2-12.62,2.54-4.54,6.29-6.93,11.57-7,8.59-.08,17.17-.27,25.75-.4,11.43-.17,22.85-.31,34.28-.49,9.8-.15,19.61-.34,29.41-.5l30.33-.5,29.41-.5,30-.51,29.72-.5,29.71-.5,30-.5,30-.51,29.42-.5,30-.5c9.91-.17,19.81-.36,29.72-.5,4.85-.06,9.71,0,14.56-.09a55.45,55.45,0,0,0,5.69-.76c6.34-.81,11.88.79,16.07,5.79a61.27,61.27,0,0,1,5.44,7.65c9.39,15.59,18.67,31.24,28,46.85,4.11,6.84,8.47,13.55,11,21.16C1220.25,251.66,1214.9,254.65,1210.05,258Zm309.56,280.5c-2.13,4-4.25,8-6.47,12-4.3,7.67-8.66,15.3-13,23-3.48,6.15-6.93,12.31-10.4,18.47l-17.58,31.13c-2.54,4.48-5.1,8.94-7.64,13.42-4.94,8.69-9.9,17.38-14.79,26.1-2.82,5-5.49,10.11-8.3,15.14-4.63,8.28-9.34,16.53-14,24.81q-5.49,9.78-10.93,19.59c-2.29,4.14-4.48,8.35-6.85,12.45a13.77,13.77,0,0,1-2.92,3.45,6.77,6.77,0,0,1-7.87,1.21c-2.64-1.26-5.32-2.42-8-3.7q-12-5.8-24-11.68a28.93,28.93,0,0,1-3.16-1.8c-4.89-3.19-5-7.42-3.82-11.37a29.75,29.75,0,0,1,2.56-5.81c2.93-5.19,6.08-10.26,9-15.47,6.16-11,12.19-22.11,18.32-33.14,2.21-4,4.6-7.85,6.84-11.8q7.83-13.85,15.61-27.72c2.08-3.7,4.15-7.41,6.25-11.1,2.8-4.91,5.71-9.77,8.41-14.74,4.39-8.07,8.62-16.23,13-24.33,2-3.74,4-7.46,6.21-11.12,2.51-4.26,5.19-8.42,7.74-12.67,4.57-7.62,3.68-14.95-1.07-22.2-4.22-6.42-8.28-12.94-12.27-19.5-8.38-13.84-16.67-27.73-25-41.59q-8.35-13.9-16.69-27.82-9.58-16-19.17-32c-5.83-9.71-11.71-19.39-17.52-29.1-6.13-10.23-12.19-20.51-18.33-30.74-6-10-12.09-19.85-18.06-29.83s-11.73-19.84-17.6-29.75q-7.82-13.18-15.64-26.34-9.72-16.27-19.47-32.53-8-13.26-16-26.5l-20.5-34c-5.85-9.7-11.66-19.41-17.54-29.08-1.47-2.42-3.2-4.67-4.68-7.08-1.11-1.8-2-3.76-3-5.6a15,15,0,0,0-10.92-7.88,41.09,41.09,0,0,0-11.14-.53,55.08,55.08,0,0,1-10.87-.42c-4.57-.42-6.44-3.72-7.39-7.69a26.68,26.68,0,0,1-.58-4.81c-.38-7.67-.7-15.35-1.06-23a66.93,66.93,0,0,1-.38-7.86c.56-7.39,2.67-9.22,9.87-10.15a71.3,71.3,0,0,1,7.88-.32c2,0,4,0,6.06,0v-.38c5.26,0,10.52.09,15.78,0,6.57,0,13.14-.19,19.71-.29.81,0,1.62,0,2.43,0,5-.1,8.69,2.21,11.2,6.45,5.1,8.62,10.13,17.28,15.25,25.87q9.4,15.77,18.92,31.45c5.81,9.6,11.71,19.14,17.45,28.78,6,10.17,11.91,20.43,17.91,30.63q8.68,14.76,17.49,29.46c4.72,7.9,9.55,15.73,14.24,23.64,6.91,11.65,13.72,23.36,20.61,35,5.86,9.92,11.78,19.8,17.68,29.71l18.29,30.74q8.76,14.71,17.51,29.43c5.8,9.83,11.54,19.71,17.32,29.56,5.58,9.5,11.13,19,16.77,28.48,6.31,10.59,12.73,21.12,19.07,31.7q8.17,13.67,16.26,27.37c6.24,10.53,12.43,21.08,18.69,31.58,3.58,6,7.34,11.87,10.86,17.89a30,30,0,0,1,4.06,9.42A7.94,7.94,0,0,1,1519.61,538.53Z" transform="translate(-351.87 -0.49)"/><rect x="786" y="417.73" width="27.17" height="53.59" rx="7.99" transform="translate(-330.79 924.52) rotate(-60.75)"/></svg>